<mxfile host="Electron" modified="2023-11-09T18:53:38.309Z" agent="Mozilla/5.0 (X11; Linux x86_64) AppleWebKit/537.36 (KHTML, like Gecko) draw.io/22.0.3 Chrome/114.0.5735.289 Electron/25.8.4 Safari/537.36" etag="gn_iZICc4uj753zR8_vU" version="22.0.3" type="device">
  <diagram id="qc-cw8mjiicPfDOIfQId" name="Page-1">
    <mxGraphModel dx="1342" dy="1763" grid="1" gridSize="10" guides="1" tooltips="1" connect="1" arrows="1" fold="1" page="1" pageScale="1" pageWidth="800" pageHeight="500" math="0" shadow="0">
      <root>
        <mxCell id="0" />
        <mxCell id="1" parent="0" />
        <mxCell id="RznItZ6FsPS7y6rkY32L-88" value="&lt;i&gt;Den&lt;/i&gt;" style="text;html=1;strokeColor=none;fillColor=none;align=center;verticalAlign=middle;whiteSpace=wrap;rounded=0;fontSize=12;" parent="1" vertex="1">
          <mxGeometry x="119.99999999999999" y="-589.8899999999999" width="54.26" height="25.05" as="geometry" />
        </mxCell>
        <mxCell id="RznItZ6FsPS7y6rkY32L-2" value="" style="verticalLabelPosition=bottom;html=1;verticalAlign=top;align=center;shape=mxgraph.floorplan.room;fillColor=strokeColor;strokeWidth=0;" parent="1" vertex="1">
          <mxGeometry x="105" y="-951.5500000000001" width="590" height="400" as="geometry" />
        </mxCell>
        <mxCell id="7r8yQM-oweqpXDeGi5ox-14" value="&lt;i&gt;Music room&lt;/i&gt;" style="text;html=1;strokeColor=none;fillColor=none;align=center;verticalAlign=middle;whiteSpace=wrap;rounded=0;fontSize=12;" parent="1" vertex="1">
          <mxGeometry x="419.98" y="-935.0546639511201" width="93" height="25.05091649694501" as="geometry" />
        </mxCell>
        <mxCell id="0M6jd2dRWZS2fC3PjOVr-4" value="" style="verticalLabelPosition=bottom;html=1;verticalAlign=top;align=center;shape=mxgraph.floorplan.wall;fillColor=strokeColor;rotation=90;" parent="1" vertex="1">
          <mxGeometry x="281.25" y="-833.53" width="227.5" height="10" as="geometry" />
        </mxCell>
        <mxCell id="DHhN4xZnDI9eWVdaT0hH-6" value="" style="group;rotation=0;" parent="1" vertex="1" connectable="0">
          <mxGeometry x="89.99600000000001" y="-798.8297035699505" width="90.14" height="169.4097035699504" as="geometry" />
        </mxCell>
        <mxCell id="DHhN4xZnDI9eWVdaT0hH-7" value="" style="verticalLabelPosition=bottom;html=1;verticalAlign=top;align=center;shape=mxgraph.floorplan.table;strokeWidth=1;rotation=-90;container=0;" parent="DHhN4xZnDI9eWVdaT0hH-6" vertex="1">
          <mxGeometry x="-26" y="27" width="151.56" height="38" as="geometry" />
        </mxCell>
        <mxCell id="DHhN4xZnDI9eWVdaT0hH-8" value="" style="verticalLabelPosition=bottom;html=1;verticalAlign=top;align=center;shape=mxgraph.floorplan.flat_tv;strokeWidth=1;rotation=-90;container=0;" parent="DHhN4xZnDI9eWVdaT0hH-6" vertex="1">
          <mxGeometry x="-13" y="40" width="108.966" height="8.350340860145565" as="geometry" />
        </mxCell>
        <mxCell id="7r8yQM-oweqpXDeGi5ox-75" value="" style="verticalLabelPosition=bottom;html=1;verticalAlign=top;align=center;shape=mxgraph.floorplan.plant;strokeWidth=1;" parent="DHhN4xZnDI9eWVdaT0hH-6" vertex="1">
          <mxGeometry x="28.783999999999992" y="128.82970356995042" width="42" height="40.58" as="geometry" />
        </mxCell>
        <mxCell id="7r8yQM-oweqpXDeGi5ox-100" value="" style="group" parent="1" vertex="1" connectable="0">
          <mxGeometry x="301" y="-770" width="44" height="38.79999999999998" as="geometry" />
        </mxCell>
        <mxCell id="7r8yQM-oweqpXDeGi5ox-96" value="" style="html=1;verticalLabelPosition=bottom;align=center;labelBackgroundColor=#ffffff;verticalAlign=top;strokeWidth=2;strokeColor=#0080F0;shadow=0;dashed=0;shape=mxgraph.ios7.icons.lightbulb;" parent="7r8yQM-oweqpXDeGi5ox-100" vertex="1">
          <mxGeometry width="22.8" height="29.7" as="geometry" />
        </mxCell>
        <mxCell id="0M6jd2dRWZS2fC3PjOVr-21" value="" style="group;rotation=-180;" parent="1" vertex="1" connectable="0">
          <mxGeometry x="267" y="-939" width="120" height="70" as="geometry" />
        </mxCell>
        <mxCell id="0M6jd2dRWZS2fC3PjOVr-17" value="" style="verticalLabelPosition=bottom;html=1;verticalAlign=top;align=center;shape=mxgraph.floorplan.office_chair;shadow=0;rotation=-180;" parent="0M6jd2dRWZS2fC3PjOVr-21" vertex="1">
          <mxGeometry x="53" y="30" width="40" height="43" as="geometry" />
        </mxCell>
        <mxCell id="0M6jd2dRWZS2fC3PjOVr-18" value="" style="shape=rect;shadow=0;html=1;rotation=-180;" parent="0M6jd2dRWZS2fC3PjOVr-21" vertex="1">
          <mxGeometry x="-10" width="130" height="50" as="geometry" />
        </mxCell>
        <mxCell id="0M6jd2dRWZS2fC3PjOVr-19" value="" style="verticalLabelPosition=bottom;html=1;verticalAlign=top;align=center;shape=mxgraph.floorplan.workstation;shadow=0;flipV=1;rotation=-180;" parent="0M6jd2dRWZS2fC3PjOVr-21" vertex="1">
          <mxGeometry x="48" y="3" width="50" height="40" as="geometry" />
        </mxCell>
        <mxCell id="0M6jd2dRWZS2fC3PjOVr-24" value="" style="verticalLabelPosition=bottom;html=1;verticalAlign=top;align=center;shape=mxgraph.floorplan.doorRight;aspect=fixed;strokeWidth=1;rotation=-90;flipH=1;flipV=1;" parent="1" vertex="1">
          <mxGeometry x="333" y="-715.6199999999999" width="62.25" height="66.15" as="geometry" />
        </mxCell>
        <mxCell id="0M6jd2dRWZS2fC3PjOVr-25" value="" style="verticalLabelPosition=bottom;html=1;verticalAlign=top;align=center;shape=mxgraph.floorplan.wall;fillColor=strokeColor;rotation=90;" parent="1" vertex="1">
          <mxGeometry x="345.32" y="-607.31" width="99.37" height="10" as="geometry" />
        </mxCell>
        <mxCell id="0M6jd2dRWZS2fC3PjOVr-27" value="D2" style="text;html=1;strokeColor=none;fillColor=none;align=center;verticalAlign=middle;whiteSpace=wrap;rounded=0;fontSize=12;rotation=0;" parent="1" vertex="1">
          <mxGeometry x="335.25" y="-688.55" width="60" height="25.05" as="geometry" />
        </mxCell>
        <mxCell id="vrruzYlt1HzjlDkKj_sJ-4" value="" style="group" parent="1" vertex="1" connectable="0">
          <mxGeometry x="68" y="-932.55" width="35" height="362" as="geometry" />
        </mxCell>
        <mxCell id="vrruzYlt1HzjlDkKj_sJ-5" value="wall1" style="text;html=1;strokeColor=none;fillColor=none;align=center;verticalAlign=middle;whiteSpace=wrap;rounded=0;fontSize=12;" parent="vrruzYlt1HzjlDkKj_sJ-4" vertex="1">
          <mxGeometry y="176.13" width="35" height="25.05" as="geometry" />
        </mxCell>
        <mxCell id="vrruzYlt1HzjlDkKj_sJ-6" value="" style="endArrow=classic;html=1;rounded=0;" parent="vrruzYlt1HzjlDkKj_sJ-4" edge="1">
          <mxGeometry width="50" height="50" relative="1" as="geometry">
            <mxPoint x="18" y="176.69999999999982" as="sourcePoint" />
            <mxPoint x="19" as="targetPoint" />
          </mxGeometry>
        </mxCell>
        <mxCell id="vrruzYlt1HzjlDkKj_sJ-7" value="" style="endArrow=classic;html=1;rounded=0;" parent="vrruzYlt1HzjlDkKj_sJ-4" edge="1">
          <mxGeometry width="50" height="50" relative="1" as="geometry">
            <mxPoint x="18" y="199.9999999999999" as="sourcePoint" />
            <mxPoint x="18" y="362" as="targetPoint" />
          </mxGeometry>
        </mxCell>
        <mxCell id="vrruzYlt1HzjlDkKj_sJ-8" value="" style="group;rotation=90;" parent="1" vertex="1" connectable="0">
          <mxGeometry x="384.98" y="-1150" width="35" height="362" as="geometry" />
        </mxCell>
        <mxCell id="vrruzYlt1HzjlDkKj_sJ-9" value="wall2" style="text;html=1;strokeColor=none;fillColor=none;align=center;verticalAlign=middle;whiteSpace=wrap;rounded=0;fontSize=12;rotation=0;" parent="vrruzYlt1HzjlDkKj_sJ-8" vertex="1">
          <mxGeometry x="-3" y="168" width="35" height="25.05" as="geometry" />
        </mxCell>
        <mxCell id="vrruzYlt1HzjlDkKj_sJ-10" value="" style="endArrow=classic;html=1;rounded=0;" parent="vrruzYlt1HzjlDkKj_sJ-8" edge="1">
          <mxGeometry width="50" height="50" relative="1" as="geometry">
            <mxPoint x="35.01999999999998" y="185" as="sourcePoint" />
            <mxPoint x="295.02" y="185" as="targetPoint" />
          </mxGeometry>
        </mxCell>
        <mxCell id="vrruzYlt1HzjlDkKj_sJ-11" value="" style="endArrow=classic;html=1;rounded=0;" parent="vrruzYlt1HzjlDkKj_sJ-8" edge="1">
          <mxGeometry width="50" height="50" relative="1" as="geometry">
            <mxPoint x="-4.980000000000018" y="185" as="sourcePoint" />
            <mxPoint x="-264.98" y="185" as="targetPoint" />
          </mxGeometry>
        </mxCell>
        <mxCell id="vrruzYlt1HzjlDkKj_sJ-12" value="" style="endArrow=classic;html=1;rounded=0;" parent="1" edge="1">
          <mxGeometry width="50" height="50" relative="1" as="geometry">
            <mxPoint x="712" y="-798" as="sourcePoint" />
            <mxPoint x="713" y="-932.75" as="targetPoint" />
          </mxGeometry>
        </mxCell>
        <mxCell id="vrruzYlt1HzjlDkKj_sJ-13" value="" style="endArrow=classic;html=1;rounded=0;" parent="1" edge="1">
          <mxGeometry width="50" height="50" relative="1" as="geometry">
            <mxPoint x="712" y="-773" as="sourcePoint" />
            <mxPoint x="712" y="-570.75" as="targetPoint" />
          </mxGeometry>
        </mxCell>
        <mxCell id="vrruzYlt1HzjlDkKj_sJ-14" value="wall3" style="text;html=1;strokeColor=none;fillColor=none;align=center;verticalAlign=middle;whiteSpace=wrap;rounded=0;fontSize=12;" parent="1" vertex="1">
          <mxGeometry x="695" y="-798.62" width="35" height="25.05" as="geometry" />
        </mxCell>
        <mxCell id="vrruzYlt1HzjlDkKj_sJ-15" value="" style="group;rotation=90;" parent="1" vertex="1" connectable="0">
          <mxGeometry x="382.98" y="-719" width="35" height="362" as="geometry" />
        </mxCell>
        <mxCell id="vrruzYlt1HzjlDkKj_sJ-16" value="wall4" style="text;html=1;strokeColor=none;fillColor=none;align=center;verticalAlign=middle;whiteSpace=wrap;rounded=0;fontSize=12;rotation=0;" parent="vrruzYlt1HzjlDkKj_sJ-15" vertex="1">
          <mxGeometry x="-3" y="168" width="35" height="25.05" as="geometry" />
        </mxCell>
        <mxCell id="vrruzYlt1HzjlDkKj_sJ-17" value="" style="endArrow=classic;html=1;rounded=0;" parent="vrruzYlt1HzjlDkKj_sJ-15" edge="1">
          <mxGeometry width="50" height="50" relative="1" as="geometry">
            <mxPoint x="35.01999999999998" y="185" as="sourcePoint" />
            <mxPoint x="295.02" y="185" as="targetPoint" />
          </mxGeometry>
        </mxCell>
        <mxCell id="vrruzYlt1HzjlDkKj_sJ-18" value="" style="endArrow=classic;html=1;rounded=0;" parent="vrruzYlt1HzjlDkKj_sJ-15" edge="1">
          <mxGeometry width="50" height="50" relative="1" as="geometry">
            <mxPoint x="-4.980000000000018" y="185" as="sourcePoint" />
            <mxPoint x="-264.98" y="185" as="targetPoint" />
          </mxGeometry>
        </mxCell>
        <mxCell id="vrruzYlt1HzjlDkKj_sJ-19" value="" style="group" parent="1" vertex="1" connectable="0">
          <mxGeometry x="394.25" y="-935.05" width="35" height="362" as="geometry" />
        </mxCell>
        <mxCell id="vrruzYlt1HzjlDkKj_sJ-20" value="wall5" style="text;html=1;strokeColor=none;fillColor=none;align=center;verticalAlign=middle;whiteSpace=wrap;rounded=0;fontSize=12;" parent="vrruzYlt1HzjlDkKj_sJ-19" vertex="1">
          <mxGeometry x="6" y="176.13" width="35" height="25.05" as="geometry" />
        </mxCell>
        <mxCell id="vrruzYlt1HzjlDkKj_sJ-21" value="" style="endArrow=classic;html=1;rounded=0;" parent="vrruzYlt1HzjlDkKj_sJ-19" edge="1">
          <mxGeometry width="50" height="50" relative="1" as="geometry">
            <mxPoint x="18" y="176.69999999999982" as="sourcePoint" />
            <mxPoint x="19" as="targetPoint" />
          </mxGeometry>
        </mxCell>
        <mxCell id="vrruzYlt1HzjlDkKj_sJ-22" value="" style="endArrow=classic;html=1;rounded=0;" parent="vrruzYlt1HzjlDkKj_sJ-19" edge="1">
          <mxGeometry width="50" height="50" relative="1" as="geometry">
            <mxPoint x="18" y="199.9999999999999" as="sourcePoint" />
            <mxPoint x="18.75" y="366.04999999999995" as="targetPoint" />
          </mxGeometry>
        </mxCell>
        <mxCell id="tj-8w5dnhXD9nJJyb_HQ-1" value="" style="verticalLabelPosition=bottom;html=1;verticalAlign=top;align=center;shape=mxgraph.floorplan.sofa;rotation=60;" vertex="1" parent="1">
          <mxGeometry x="211.25" y="-844.74" width="70" height="50" as="geometry" />
        </mxCell>
        <mxCell id="tj-8w5dnhXD9nJJyb_HQ-2" value="" style="verticalLabelPosition=bottom;html=1;verticalAlign=top;align=center;shape=mxgraph.floorplan.sofa;rotation=120;" vertex="1" parent="1">
          <mxGeometry x="208.74" y="-713.5" width="70" height="50" as="geometry" />
        </mxCell>
        <mxCell id="7r8yQM-oweqpXDeGi5ox-118" value="" style="group;rotation=-180;direction=north;flipH=0;flipV=1;" parent="1" vertex="1" connectable="0">
          <mxGeometry x="120.00000000000003" y="-938.5482903779614" width="68.70829037796125" height="72.70829037796125" as="geometry" />
        </mxCell>
        <mxCell id="7r8yQM-oweqpXDeGi5ox-113" value="" style="endArrow=none;html=1;rounded=0;" parent="7r8yQM-oweqpXDeGi5ox-118" edge="1">
          <mxGeometry width="50" height="50" relative="1" as="geometry">
            <mxPoint x="69" y="27" as="sourcePoint" />
            <mxPoint x="17" y="18" as="targetPoint" />
          </mxGeometry>
        </mxCell>
        <mxCell id="7r8yQM-oweqpXDeGi5ox-114" value="" style="endArrow=none;html=1;rounded=0;" parent="7r8yQM-oweqpXDeGi5ox-118" edge="1">
          <mxGeometry width="50" height="50" relative="1" as="geometry">
            <mxPoint x="22" y="68" as="sourcePoint" />
            <mxPoint x="18" y="27" as="targetPoint" />
          </mxGeometry>
        </mxCell>
        <mxCell id="7r8yQM-oweqpXDeGi5ox-110" value="" style="image;aspect=fixed;perimeter=ellipsePerimeter;html=1;align=center;shadow=0;dashed=0;fontColor=#4277BB;labelBackgroundColor=default;fontSize=12;spacingTop=3;image=img/lib/ibm/users/sensor.svg;rotation=-522;" parent="7r8yQM-oweqpXDeGi5ox-118" vertex="1">
          <mxGeometry x="1" y="3" width="33" height="33" as="geometry" />
        </mxCell>
        <mxCell id="tj-8w5dnhXD9nJJyb_HQ-17" value="" style="verticalLabelPosition=bottom;html=1;verticalAlign=top;align=center;shape=mxgraph.floorplan.chair;rotation=-150;" vertex="1" parent="1">
          <mxGeometry x="548" y="-823.34" width="40" height="42.48" as="geometry" />
        </mxCell>
        <mxCell id="tj-8w5dnhXD9nJJyb_HQ-3" value="" style="group;rotation=180;" vertex="1" connectable="0" parent="1">
          <mxGeometry x="428.98" y="-612.09" width="120" height="59.090000000000025" as="geometry" />
        </mxCell>
        <mxCell id="RznItZ6FsPS7y6rkY32L-38" value="" style="verticalLabelPosition=bottom;html=1;verticalAlign=top;align=center;shape=mxgraph.floorplan.doorDouble;aspect=fixed;strokeWidth=1;rotation=-180;" parent="tj-8w5dnhXD9nJJyb_HQ-3" vertex="1">
          <mxGeometry x="11" width="96.17" height="51.09" as="geometry" />
        </mxCell>
        <mxCell id="RznItZ6FsPS7y6rkY32L-39" value="" style="verticalLabelPosition=bottom;html=1;verticalAlign=top;align=center;shape=mxgraph.floorplan.wall;strokeWidth=1;rotation=0;" parent="tj-8w5dnhXD9nJJyb_HQ-3" vertex="1">
          <mxGeometry y="51" width="120" height="8.35" as="geometry" />
        </mxCell>
        <mxCell id="tj-8w5dnhXD9nJJyb_HQ-16" value="" style="verticalLabelPosition=bottom;html=1;verticalAlign=top;align=center;shape=mxgraph.floorplan.piano;rotation=15;" vertex="1" parent="1">
          <mxGeometry x="536.5" y="-920" width="123.5" height="107.52" as="geometry" />
        </mxCell>
        <mxCell id="tj-8w5dnhXD9nJJyb_HQ-20" value="" style="html=1;verticalLabelPosition=bottom;align=center;labelBackgroundColor=#ffffff;verticalAlign=top;strokeWidth=2;strokeColor=#0080F0;shadow=0;dashed=0;shape=mxgraph.ios7.icons.lightbulb;" vertex="1" parent="1">
          <mxGeometry x="476.65999999999997" y="-771.83" width="22.8" height="29.7" as="geometry" />
        </mxCell>
        <mxCell id="tj-8w5dnhXD9nJJyb_HQ-21" value="" style="group;rotation=-90;direction=north;flipH=0;flipV=1;" vertex="1" connectable="0" parent="1">
          <mxGeometry x="612" y="-940.3582903779613" width="68.70829037796125" height="72.70829037796125" as="geometry" />
        </mxCell>
        <mxCell id="tj-8w5dnhXD9nJJyb_HQ-22" value="" style="endArrow=none;html=1;rounded=0;" edge="1" parent="tj-8w5dnhXD9nJJyb_HQ-21">
          <mxGeometry width="50" height="50" relative="1" as="geometry">
            <mxPoint x="44" y="71" as="sourcePoint" />
            <mxPoint x="53" y="19" as="targetPoint" />
          </mxGeometry>
        </mxCell>
        <mxCell id="tj-8w5dnhXD9nJJyb_HQ-23" value="" style="endArrow=none;html=1;rounded=0;" edge="1" parent="tj-8w5dnhXD9nJJyb_HQ-21">
          <mxGeometry width="50" height="50" relative="1" as="geometry">
            <mxPoint x="3" y="24" as="sourcePoint" />
            <mxPoint x="44" y="20" as="targetPoint" />
          </mxGeometry>
        </mxCell>
        <mxCell id="tj-8w5dnhXD9nJJyb_HQ-24" value="" style="image;aspect=fixed;perimeter=ellipsePerimeter;html=1;align=center;shadow=0;dashed=0;fontColor=#4277BB;labelBackgroundColor=default;fontSize=12;spacingTop=3;image=img/lib/ibm/users/sensor.svg;rotation=-432;" vertex="1" parent="tj-8w5dnhXD9nJJyb_HQ-21">
          <mxGeometry x="35" y="3" width="33" height="33" as="geometry" />
        </mxCell>
        <mxCell id="tj-8w5dnhXD9nJJyb_HQ-25" value="" style="group" vertex="1" connectable="0" parent="1">
          <mxGeometry x="528.25" y="-744.09" width="140" height="140" as="geometry" />
        </mxCell>
        <mxCell id="tj-8w5dnhXD9nJJyb_HQ-11" value="" style="verticalLabelPosition=bottom;html=1;verticalAlign=top;align=center;shape=mxgraph.floorplan.chair;shadow=0;" vertex="1" parent="tj-8w5dnhXD9nJJyb_HQ-25">
          <mxGeometry x="50" width="40" height="52" as="geometry" />
        </mxCell>
        <mxCell id="tj-8w5dnhXD9nJJyb_HQ-12" value="" style="verticalLabelPosition=bottom;html=1;verticalAlign=top;align=center;shape=mxgraph.floorplan.chair;shadow=0;direction=west;" vertex="1" parent="tj-8w5dnhXD9nJJyb_HQ-25">
          <mxGeometry x="50" y="88" width="40" height="52" as="geometry" />
        </mxCell>
        <mxCell id="tj-8w5dnhXD9nJJyb_HQ-13" value="" style="verticalLabelPosition=bottom;html=1;verticalAlign=top;align=center;shape=mxgraph.floorplan.chair;shadow=0;direction=north;" vertex="1" parent="tj-8w5dnhXD9nJJyb_HQ-25">
          <mxGeometry y="50" width="52" height="40" as="geometry" />
        </mxCell>
        <mxCell id="tj-8w5dnhXD9nJJyb_HQ-14" value="" style="verticalLabelPosition=bottom;html=1;verticalAlign=top;align=center;shape=mxgraph.floorplan.chair;shadow=0;direction=south" vertex="1" parent="tj-8w5dnhXD9nJJyb_HQ-25">
          <mxGeometry x="88" y="50" width="52" height="40" as="geometry" />
        </mxCell>
        <mxCell id="tj-8w5dnhXD9nJJyb_HQ-15" value="" style="shape=ellipse;shadow=0;html=1;" vertex="1" parent="tj-8w5dnhXD9nJJyb_HQ-25">
          <mxGeometry x="20" y="20" width="100" height="100" as="geometry" />
        </mxCell>
        <mxCell id="tj-8w5dnhXD9nJJyb_HQ-26" value="" style="verticalLabelPosition=bottom;html=1;verticalAlign=top;align=center;shape=mxgraph.floorplan.bookcase;rotation=-180;" vertex="1" parent="1">
          <mxGeometry x="244" y="-594.84" width="143" height="30" as="geometry" />
        </mxCell>
        <mxCell id="tj-8w5dnhXD9nJJyb_HQ-27" value="D1" style="text;html=1;strokeColor=none;fillColor=none;align=center;verticalAlign=middle;whiteSpace=wrap;rounded=0;fontSize=12;rotation=0;" vertex="1" parent="1">
          <mxGeometry x="430.98" y="-595.0699999999999" width="60" height="25.05" as="geometry" />
        </mxCell>
      </root>
    </mxGraphModel>
  </diagram>
</mxfile>
